<svg width="283.411" height="100.782" viewBox="0 0 283.411 100.782" xmlns="http://www.w3.org/2000/svg"><g id="svgGroup" stroke-linecap="round" fill-rule="evenodd" font-size="9pt" stroke="#ffffff" stroke-width="0.25mm" fill="#ffffff" style="stroke:#ffffff;stroke-width:0.25mm;fill:#ffffff"><path d="M 218.774 95.032 A 0.977 0.977 0 0 0 218.58 94.412 Q 218.178 93.897 216.943 93.897 A 536.454 536.454 0 0 1 209.697 95.197 A 439.513 439.513 0 0 1 202.899 96.314 Q 196.326 97.339 190.247 97.339 A 43.866 43.866 0 0 1 178.97 95.873 Q 169.821 93.45 161.236 87.023 A 80.305 80.305 0 0 1 149.011 75.513 A 2.364 2.364 0 0 1 149.196 75.52 A 1.849 1.849 0 0 1 149.414 75.549 A 1.797 1.797 0 0 0 149.584 75.575 A 2.296 2.296 0 0 0 149.817 75.586 Q 159.338 75.586 166.333 67.493 Q 173.328 59.4 176.99 46.875 A 88.031 88.031 0 0 0 177.433 45.305 A 93.808 93.808 0 0 0 180.652 20.545 A 21.873 21.873 0 0 0 179.266 12.936 A 28.149 28.149 0 0 0 176.019 6.757 A 19.84 19.84 0 0 0 173.881 4.124 A 12.773 12.773 0 0 0 164.429 0 A 32.522 32.522 0 0 0 164.052 0.002 Q 157.471 0.079 157.471 2.857 A 1.594 1.594 0 0 0 157.471 2.861 Q 157.474 3.956 158.972 4.102 A 17.658 17.658 0 0 1 160.929 3.655 A 21.075 21.075 0 0 1 164.465 3.369 A 9.63 9.63 0 0 1 171.869 6.794 A 16.804 16.804 0 0 1 174.097 9.998 Q 177.283 15.82 177.283 23.035 Q 177.283 30.249 175.818 37.573 A 85.473 85.473 0 0 1 175.494 39.084 Q 173.875 46.323 171.189 52.308 A 48.159 48.159 0 0 1 161.609 66.577 Q 158.819 69.367 156.039 70.74 A 12.06 12.06 0 0 1 150.659 72.07 A 8.905 8.905 0 0 1 143.927 69.353 Q 139.49 64.719 139.49 52.185 Q 139.49 46.912 140.112 41.638 Q 141.324 31.328 144.325 23.96 A 35.961 35.961 0 0 1 149.084 15.491 Q 150.719 13.363 152.516 11.934 A 12.623 12.623 0 0 1 160.547 9.009 Q 161.279 9.009 162.964 9.522 A 22.137 22.137 0 0 0 163.738 9.743 Q 164.473 9.938 164.976 10.002 A 3.513 3.513 0 0 0 165.417 10.034 A 1.957 1.957 0 0 0 166.226 9.862 A 2.369 2.369 0 0 0 166.827 9.467 A 3.692 3.692 0 0 0 166.874 9.424 Q 167.218 9.11 167.362 8.812 A 0.968 0.968 0 0 0 167.468 8.386 A 2.017 2.017 0 0 0 167.463 8.242 Q 167.448 8.022 167.38 7.891 A 0.347 0.347 0 0 0 167.249 7.745 A 0.862 0.862 0 0 1 167.16 7.686 Q 166.991 7.557 166.846 7.324 Q 166.608 7.205 165.463 6.893 A 69.823 69.823 0 0 0 164.886 6.738 A 14.262 14.262 0 0 0 164.575 6.66 A 12.69 12.69 0 0 0 161.609 6.299 A 19.005 19.005 0 0 0 152.197 8.669 A 21.78 21.78 0 0 0 146.301 13.587 A 29.06 29.06 0 0 0 144.895 15.361 Q 140.603 21.227 138.373 30.194 A 83.467 83.467 0 0 0 136.8 38.205 A 98.623 98.623 0 0 0 135.791 52.551 A 43.63 43.63 0 0 0 137.421 64.252 A 26.229 26.229 0 0 0 137.555 64.721 Q 138.223 66.966 139.21 68.786 A 14.747 14.747 0 0 0 142.786 73.206 Q 149.011 81.202 155.526 86.883 A 64.015 64.015 0 0 0 167.249 95.105 A 47.03 47.03 0 0 0 189.88 100.781 A 73.312 73.312 0 0 0 195.863 100.525 A 96.727 96.727 0 0 0 202.386 99.756 A 363.657 363.657 0 0 0 209.422 98.621 A 448.397 448.397 0 0 0 216.943 97.266 Q 217.749 96.973 218.262 96.314 Q 218.774 95.654 218.774 95.032 Z M 7.617 70.349 L 9.558 62.183 A 276.121 276.121 0 0 1 12.103 50.556 A 1329.249 1329.249 0 0 0 14.905 38.709 L 12.634 38.599 A 1.477 1.477 0 0 1 12.166 38.531 Q 11.499 38.308 11.499 37.354 Q 11.499 35.883 14.231 35.617 A 13.889 13.889 0 0 1 15.564 35.559 A 186.842 186.842 0 0 0 17.436 26.586 A 231.79 231.79 0 0 0 18.494 20.361 A 118.554 118.554 0 0 1 19.933 12.721 A 86.262 86.262 0 0 1 21.79 5.75 A 9.536 9.536 0 0 0 19.299 7.324 A 3.035 3.035 0 0 1 18.866 7.994 A 1.914 1.914 0 0 1 17.358 8.679 A 0.903 0.903 0 0 1 17.114 8.643 Q 16.89 8.579 16.615 8.408 A 3.409 3.409 0 0 1 16.553 8.368 Q 16.185 8.128 16.101 7.549 A 2.598 2.598 0 0 1 16.077 7.178 A 2.767 2.767 0 0 1 16.688 5.469 Q 17.235 4.752 18.274 4.12 A 14.48 14.48 0 0 1 21.878 2.57 A 17.433 17.433 0 0 1 23.291 2.234 Q 23.767 1.465 24.445 1.465 A 1.336 1.336 0 0 1 25.404 1.868 A 1.996 1.996 0 0 1 25.598 2.088 A 17.867 17.867 0 0 1 30.798 2.982 A 14.234 14.234 0 0 1 36.768 6.867 A 15.425 15.425 0 0 1 40.481 14.168 A 22.628 22.628 0 0 1 40.979 19.043 A 16.483 16.483 0 0 1 37.945 28.531 A 21.898 21.898 0 0 1 36.383 30.542 Q 31.787 35.816 26.074 36.585 A 15.811 15.811 0 0 1 35.863 40.806 A 21.118 21.118 0 0 1 37.244 42.169 A 21.297 21.297 0 0 1 40.024 45.86 Q 41.631 48.608 41.958 51.458 A 12.815 12.815 0 0 1 42.041 52.918 A 22.05 22.05 0 0 1 41.029 59.78 A 17.188 17.188 0 0 1 33.856 68.994 Q 25.671 74.378 11.682 74.378 L 10.107 74.304 Q 9.926 75.056 9.873 75.643 A 5.081 5.081 0 0 0 9.851 76.099 A 3.103 3.103 0 0 1 9.504 77.06 A 2.763 2.763 0 0 1 9.027 77.673 Q 8.632 78.057 8.257 78.205 A 1.244 1.244 0 0 1 7.8 78.296 A 1.586 1.586 0 0 1 7.174 78.181 Q 6.51 77.898 6.353 76.922 A 3.393 3.393 0 0 1 6.335 76.795 Q 6.482 75.623 6.848 73.792 L 4.724 73.352 A 22.792 22.792 0 0 1 3.176 72.988 Q 0.893 72.358 0.268 71.508 A 1.148 1.148 0 0 1 0.037 70.935 A 1.288 1.288 0 0 1 0.021 70.829 Q 0.007 70.706 0.002 70.524 A 7.793 7.793 0 0 1 0 70.331 A 1.004 1.004 0 0 1 0.074 69.964 Q 0.131 69.819 0.232 69.666 A 2.534 2.534 0 0 1 0.421 69.415 A 2.261 2.261 0 0 1 0.636 69.193 Q 0.902 68.956 1.154 68.925 A 0.61 0.61 0 0 1 1.227 68.921 A 2.915 2.915 0 0 1 1.864 68.994 A 3.342 3.342 0 0 1 2.014 69.031 A 7.569 7.569 0 0 1 2.314 69.146 Q 2.775 69.334 3.549 69.694 A 63.573 63.573 0 0 1 3.735 69.782 A 4.411 4.411 0 0 0 4.531 70.056 Q 5.696 70.349 7.617 70.349 Z M 78.223 56.104 L 77.454 60.535 A 84.474 84.474 0 0 0 78.116 59.116 Q 78.405 58.483 78.716 57.78 A 158.448 158.448 0 0 0 79.358 56.305 Q 80.171 54.412 81.585 51.264 A 844.292 844.292 0 0 1 82.507 49.219 A 53.701 53.701 0 0 1 85.265 43.9 A 44.107 44.107 0 0 1 87.158 40.979 A 22.086 22.086 0 0 1 88.654 39.038 Q 91.112 36.218 93.311 36.218 A 4.176 4.176 0 0 1 97.298 38.639 Q 98.224 40.443 98.317 43.59 A 24.371 24.371 0 0 1 98.328 44.312 A 27.766 27.766 0 0 1 98.216 46.69 Q 98.117 47.837 97.93 49.137 A 63.358 63.358 0 0 1 97.467 51.892 A 2122.17 2122.17 0 0 1 96.561 56.644 A 2741.654 2741.654 0 0 1 95.563 61.817 A 88.088 88.088 0 0 0 94.956 65.297 Q 94.481 68.408 94.409 70.715 L 93.97 72.73 A 4.317 4.317 0 0 1 93.953 73.125 Q 93.917 73.517 93.802 73.759 A 0.906 0.906 0 0 1 93.732 73.883 A 0.527 0.527 0 0 1 93.526 74.049 Q 93.201 74.212 92.477 74.229 A 7.429 7.429 0 0 1 92.303 74.231 A 5.11 5.11 0 0 1 91.702 74.198 Q 91.064 74.122 90.689 73.871 A 1.318 1.318 0 0 1 90.582 73.792 A 1.017 1.017 0 0 1 90.264 73.304 Q 90.131 72.891 90.229 72.254 A 4.37 4.37 0 0 1 90.234 72.217 L 93.896 50.317 A 82.427 82.427 0 0 0 94.185 48.406 Q 94.556 45.722 94.556 44.129 A 9.926 9.926 0 0 0 94.486 42.896 Q 94.326 41.623 93.796 41.027 A 1.552 1.552 0 0 0 92.578 40.503 A 2.196 2.196 0 0 0 91.256 41.173 Q 88.756 43.355 84 52.648 A 206.761 206.761 0 0 0 82.507 55.628 A 277.048 277.048 0 0 0 80.95 58.842 Q 78.817 63.323 77.813 65.942 A 39.706 39.706 0 0 0 77.802 65.973 Q 76.571 69.194 75.914 70.66 A 23.006 23.006 0 0 1 75.806 70.899 A 14.788 14.788 0 0 1 75.395 71.723 Q 74.946 72.556 74.506 73.059 A 2.554 2.554 0 0 1 74.059 73.469 A 1.672 1.672 0 0 1 73.077 73.792 A 2.46 2.46 0 0 1 72.769 73.774 Q 72.446 73.733 72.281 73.597 A 0.452 0.452 0 0 1 72.144 73.407 A 1.492 1.492 0 0 1 72.079 73.176 Q 71.997 72.771 71.997 72.015 A 4.844 4.844 0 0 1 72.043 71.525 Q 72.319 69.342 74.248 58.598 A 2535.59 2535.59 0 0 1 74.945 54.73 Q 77.893 38.452 78.351 37.61 A 6.992 6.992 0 0 1 78.574 37.227 Q 78.8 36.868 79.001 36.672 A 1.154 1.154 0 0 1 79.175 36.53 A 1.058 1.058 0 0 1 79.427 36.415 Q 79.809 36.292 80.493 36.292 A 1.978 1.978 0 0 1 81.173 36.403 A 1.696 1.696 0 0 1 81.976 37.024 A 3.932 3.932 0 0 1 82.245 37.444 Q 82.507 37.925 82.507 38.324 A 4.317 4.317 0 0 1 82.361 39.441 A 21.119 21.119 0 0 1 82.143 40.213 Q 82.032 40.585 81.894 41.005 A 47.956 47.956 0 0 1 81.592 41.895 A 51.506 51.506 0 0 0 80.507 45.438 Q 79.496 49.173 78.536 54.365 A 188.795 188.795 0 0 0 78.223 56.104 Z M 188.196 43.03 L 189.331 38.489 A 6.384 6.384 0 0 1 189.681 37.519 Q 190.387 35.999 191.675 35.999 A 1.108 1.108 0 0 1 192.646 36.534 Q 192.779 36.736 192.876 37.013 A 3.313 3.313 0 0 1 192.957 37.28 A 6.436 6.436 0 0 1 192.561 39 A 5.911 5.911 0 0 1 192.371 39.441 A 8.135 8.135 0 0 0 191.837 40.904 A 9.716 9.716 0 0 0 191.675 41.638 A 375.225 375.225 0 0 0 190.341 48.693 Q 188.452 59.289 188.452 63.831 L 188.379 67.346 A 13.924 13.924 0 0 0 188.408 68.29 Q 188.505 69.702 188.92 70.146 A 0.594 0.594 0 0 0 189.368 70.349 Q 192.06 70.349 198.3 58.373 A 165.702 165.702 0 0 0 199.072 56.873 A 195.036 195.036 0 0 0 199.633 55.781 Q 200.49 54.1 201.598 51.859 A 543.626 543.626 0 0 0 201.672 51.709 Q 202.85 49.326 203.641 47.812 A 74.013 74.013 0 0 1 204.089 46.967 A 61.04 61.04 0 0 0 205.211 44.786 A 51.522 51.522 0 0 0 205.664 43.836 A 39.494 39.494 0 0 1 206.721 41.682 Q 208.382 38.563 209.748 37.77 A 1.787 1.787 0 0 1 210.645 37.5 Q 211.926 37.5 211.926 38.91 A 4.416 4.416 0 0 1 211.837 39.728 Q 211.581 41.062 210.594 43.324 A 42.111 42.111 0 0 1 210.498 43.543 Q 209.07 46.765 208.154 50.134 Q 205.518 59.546 204.895 69.8 L 204.895 70.203 Q 204.895 70.877 205.067 71.337 A 1.619 1.619 0 0 0 205.353 71.832 Q 205.793 72.344 206.014 72.583 A 9.372 9.372 0 0 0 206.03 72.601 A 0.589 0.589 0 0 1 206.139 72.782 Q 206.214 72.966 206.238 73.268 A 4.002 4.002 0 0 1 206.25 73.59 A 1.355 1.355 0 0 1 205.993 74.373 Q 205.849 74.58 205.626 74.776 A 3.256 3.256 0 0 1 205.389 74.963 A 4.442 4.442 0 0 1 204.874 75.288 Q 204.314 75.586 203.833 75.586 Q 201.773 75.586 201.613 70.476 A 28.677 28.677 0 0 1 201.599 69.58 A 43.378 43.378 0 0 1 202.237 62.267 A 48.047 48.047 0 0 1 202.35 61.633 A 367.947 367.947 0 0 1 203.906 53.687 Q 202.551 56.104 201.343 58.649 A 82.058 82.058 0 0 1 200.547 60.282 Q 200.183 61.005 199.851 61.623 A 33.994 33.994 0 0 1 199.219 62.75 A 88.086 88.086 0 0 0 198.784 63.498 Q 198.207 64.501 197.81 65.262 A 30.255 30.255 0 0 0 197.754 65.369 Q 193.402 73.667 189.626 74.322 A 3.757 3.757 0 0 1 188.983 74.378 A 3.242 3.242 0 0 1 185.948 72.373 Q 185.162 70.814 184.987 68.044 A 26.791 26.791 0 0 1 184.937 66.358 A 77.541 77.541 0 0 1 185.56 56.828 Q 186.162 51.979 187.344 46.642 A 137.037 137.037 0 0 1 188.196 43.03 Z M 272.241 39.295 L 275.83 23.547 A 113.786 113.786 0 0 0 276.004 22.728 Q 276.461 20.548 277.606 14.85 A 772.187 772.187 0 0 1 278.255 11.657 Q 279.081 7.635 279.566 5.554 A 71.65 71.65 0 0 1 279.675 5.09 L 279.822 4.175 A 2.287 2.287 0 0 1 280.463 2.545 A 2.751 2.751 0 0 1 280.869 2.188 Q 281.135 1.999 281.411 1.922 A 1.429 1.429 0 0 1 281.799 1.868 A 2.169 2.169 0 0 1 282.447 1.956 Q 283.155 2.178 283.343 2.954 A 2.705 2.705 0 0 1 283.411 3.589 L 283.411 3.919 A 8.704 8.704 0 0 1 283.32 4.946 Q 282.927 7.938 280.829 17.578 A 844.12 844.12 0 0 0 279.651 23.071 Q 278.223 29.852 277.611 33.469 A 82.821 82.821 0 0 0 277.478 34.277 Q 276.889 37.978 275.495 43.933 A 329.138 329.138 0 0 1 274.567 47.791 A 654.489 654.489 0 0 0 273.706 51.318 Q 272.551 56.112 272.056 58.568 A 48.566 48.566 0 0 0 271.875 59.509 Q 271.326 62.549 270.813 64.655 A 17.671 17.671 0 0 0 270.3 68.848 A 14.046 14.046 0 0 0 270.87 72.761 A 15.817 15.817 0 0 0 270.959 73.059 A 2.286 2.286 0 0 1 270.154 74.542 Q 269.736 74.905 269.358 75.05 A 1.355 1.355 0 0 1 268.872 75.147 Q 267.92 75.147 267.224 72.894 Q 266.768 71.416 266.611 70.254 A 8.491 8.491 0 0 1 266.528 69.122 Q 266.528 67.941 266.794 66.439 A 25.032 25.032 0 0 1 266.968 65.552 A 23.655 23.655 0 0 1 265.888 68.278 Q 264.685 70.808 263.086 72.272 A 8.131 8.131 0 0 1 259.059 74.249 A 11.597 11.597 0 0 1 256.842 74.451 Q 252.999 74.451 251.366 71.317 A 7.376 7.376 0 0 1 251.349 71.283 A 15.5 15.5 0 0 1 250.153 68.244 A 12.093 12.093 0 0 1 249.719 65.076 Q 249.719 54.805 253.288 47.427 A 29.56 29.56 0 0 1 253.967 46.106 A 54.422 54.422 0 0 1 255.101 44.14 Q 256.213 42.308 257.157 41.157 A 13.168 13.168 0 0 1 257.465 40.796 A 16.609 16.609 0 0 1 259.2 39.111 Q 260.114 38.339 261.217 37.599 A 27.016 27.016 0 0 1 261.365 37.5 A 9.242 9.242 0 0 1 264.674 36.166 A 12.891 12.891 0 0 1 267.224 35.925 Q 270.139 35.925 271.691 38.291 A 7.511 7.511 0 0 1 272.241 39.295 Z M 243.933 42.371 L 243.933 42.664 A 0.518 0.518 0 0 1 243.919 42.739 Q 243.833 43.109 243.236 45.197 A 597.757 597.757 0 0 1 243.018 45.96 Q 242.327 48.362 241.491 53.178 A 223.427 223.427 0 0 0 240.93 56.58 A 115.407 115.407 0 0 0 240.216 61.851 Q 239.932 64.423 239.824 66.668 A 54.738 54.738 0 0 0 239.758 69.287 Q 240.042 69.476 240.406 69.705 A 43.857 43.857 0 0 0 240.527 69.782 A 5.461 5.461 0 0 1 240.823 69.982 Q 241.173 70.234 241.626 70.624 Q 242.285 71.192 242.285 71.961 Q 242.285 72.73 241.809 73.334 A 1.549 1.549 0 0 1 240.751 73.919 A 2.275 2.275 0 0 1 240.454 73.938 A 3.522 3.522 0 0 1 238.347 73.223 Q 237.848 72.861 237.384 72.315 A 7.388 7.388 0 0 1 237.213 72.107 A 6.9 6.9 0 0 1 236.134 70.218 A 5.924 5.924 0 0 1 235.767 68.152 A 27.638 27.638 0 0 1 235.922 65.451 Q 236.368 60.995 238.089 53.162 A 254.784 254.784 0 0 1 238.257 52.405 A 60.959 60.959 0 0 1 231.7 63.066 A 69.296 69.296 0 0 1 230.2 64.966 A 165.148 165.148 0 0 1 228.184 67.387 Q 224.844 71.313 223.37 72.4 A 7.112 7.112 0 0 1 221.086 73.544 A 6.548 6.548 0 0 1 219.287 73.792 A 4.803 4.803 0 0 1 217.388 73.445 Q 215.318 72.56 215.044 69.42 A 11.648 11.648 0 0 1 215.002 68.408 A 18.5 18.5 0 0 1 215.476 64.42 Q 216.323 60.596 218.685 55.854 A 61.09 61.09 0 0 1 219.012 55.206 A 61.146 61.146 0 0 1 224.729 46.061 A 51.966 51.966 0 0 1 228.442 41.693 A 39.281 39.281 0 0 1 230.718 39.474 Q 234.611 35.999 237.286 35.999 Q 240.71 35.999 241.187 39.002 A 21.448 21.448 0 0 1 241.359 40.374 A 25.032 25.032 0 0 1 241.406 40.942 A 1.283 1.283 0 0 1 241.888 40.751 A 1.762 1.762 0 0 1 242.212 40.723 A 2.596 2.596 0 0 1 242.883 40.802 Q 243.933 41.083 243.933 42.371 Z M 50.903 59.4 L 50.757 64.783 A 15.578 15.578 0 0 0 50.891 66.923 Q 51.229 69.349 52.423 70.359 A 3.201 3.201 0 0 0 54.565 71.082 A 7.993 7.993 0 0 0 56.919 70.71 Q 57.874 70.417 58.868 69.891 A 1390.231 1390.231 0 0 0 59.916 69.338 Q 61.215 68.65 61.945 68.258 A 171.2 171.2 0 0 0 62.109 68.17 A 7.772 7.772 0 0 1 62.576 67.938 Q 63.235 67.639 63.647 67.639 A 1.742 1.742 0 0 1 64.162 67.709 Q 64.929 67.946 64.929 68.994 A 1.744 1.744 0 0 1 64.591 69.964 Q 63.872 71.031 61.627 72.259 A 24.33 24.33 0 0 1 61.084 72.546 A 25.691 25.691 0 0 1 58.914 73.546 Q 56.478 74.524 54.675 74.524 A 12.577 12.577 0 0 1 53.335 74.457 Q 51.892 74.302 51 73.786 A 3.476 3.476 0 0 1 50.83 73.682 A 6.066 6.066 0 0 1 49.118 71.963 A 7.44 7.44 0 0 1 48.743 71.338 A 12.764 12.764 0 0 1 47.475 67.688 Q 47.178 66.146 47.168 64.384 A 21.62 21.62 0 0 1 47.168 64.27 Q 47.168 56.946 49.365 50.464 Q 51.563 43.982 55.225 39.716 A 15.544 15.544 0 0 1 57.571 37.466 Q 59.161 36.253 60.851 35.769 A 8.266 8.266 0 0 1 63.135 35.449 Q 65.276 35.449 66.554 37.126 A 5.411 5.411 0 0 1 66.705 37.335 A 7.352 7.352 0 0 1 67.952 40.771 A 9.362 9.362 0 0 1 68.005 41.785 A 15.237 15.237 0 0 1 67.499 45.799 A 12.027 12.027 0 0 1 65.497 49.915 A 20.529 20.529 0 0 1 59.326 55.371 A 56.565 56.565 0 0 1 55.125 57.566 A 75.403 75.403 0 0 1 50.903 59.4 Z M 11.975 65.808 L 11.353 68.298 Q 11.023 69.617 10.767 70.862 A 10.11 10.11 0 0 0 11.398 70.933 Q 12.09 70.991 13.069 71.004 A 45.302 45.302 0 0 0 13.696 71.008 A 48.118 48.118 0 0 0 20.642 70.54 Q 24.167 70.025 27.04 68.942 A 20.784 20.784 0 0 0 32.135 66.211 Q 38.377 61.578 38.591 53.94 A 19.5 19.5 0 0 0 38.599 53.394 A 11.837 11.837 0 0 0 35.95 45.964 A 17.806 17.806 0 0 0 33.472 43.396 Q 28.345 39.002 22.083 39.002 Q 20.471 39.002 18.127 38.855 Q 14.683 53.805 13.735 58.218 A 159.523 159.523 0 0 0 13.678 58.484 A 610.256 610.256 0 0 1 13.364 59.949 Q 12.783 62.646 12.56 63.528 A 13.056 13.056 0 0 1 12.524 63.666 A 145.749 145.749 0 0 0 12.259 64.687 A 192.32 192.32 0 0 0 11.975 65.808 Z M 37.317 19.08 A 20.923 20.923 0 0 0 36.979 15.19 Q 36.235 11.266 33.856 8.899 A 12.155 12.155 0 0 0 26.907 5.487 A 16.557 16.557 0 0 0 24.866 5.31 Q 23.035 11.353 21.332 21.661 Q 19.941 30.083 19.173 33.946 A 73.136 73.136 0 0 1 18.86 35.449 A 23.977 23.977 0 0 0 26.149 33.865 A 20.655 20.655 0 0 0 31.952 30.377 Q 37.317 25.818 37.317 19.08 Z M 269.748 50.025 A 1879.172 1879.172 0 0 0 269.55 51.068 A 29.756 29.756 0 0 1 269.234 52.52 Q 268.93 53.773 268.49 55.171 A 58.761 58.761 0 0 1 267.517 57.99 A 29.48 29.48 0 0 1 267.248 58.685 Q 265.792 62.316 263.086 66.358 Q 261.161 69.233 259.39 70.243 A 3.767 3.767 0 0 1 257.52 70.789 A 5.223 5.223 0 0 1 257.221 70.78 Q 256.785 70.755 256.414 70.656 A 2.699 2.699 0 0 1 255.469 70.203 Q 253.784 68.939 253.31 66.446 A 11.481 11.481 0 0 1 253.125 64.307 A 23.755 23.755 0 0 1 253.293 61.582 Q 253.484 59.937 253.89 58.063 A 55.467 55.467 0 0 1 254.901 54.144 A 45.25 45.25 0 0 1 256.403 49.837 A 35.982 35.982 0 0 1 259.662 43.598 A 16.156 16.156 0 0 1 260.892 41.956 Q 261.793 40.908 262.746 40.241 A 5.996 5.996 0 0 1 266.235 39.075 Q 267.526 39.075 268.44 39.811 A 4.063 4.063 0 0 1 269.348 40.869 A 8.353 8.353 0 0 1 269.776 41.659 A 6.695 6.695 0 0 1 270.447 44.55 A 34.762 34.762 0 0 1 270.437 45.414 Q 270.406 46.638 270.282 47.26 A 55.624 55.624 0 0 0 270.272 47.312 Q 270.133 48.007 269.748 50.025 Z M 218.738 68.555 A 2.363 2.363 0 0 0 218.786 69.058 Q 218.973 69.91 219.873 69.91 A 1.948 1.948 0 0 0 220.636 69.764 A 1.846 1.846 0 0 0 221.228 69.36 A 48.651 48.651 0 0 0 227.989 62.147 Q 230.885 58.392 233.5 53.737 A 86.969 86.969 0 0 0 234.814 51.306 A 338.415 338.415 0 0 0 235.616 49.746 Q 237.752 45.557 238.269 44.201 A 3.354 3.354 0 0 0 238.422 43.726 A 12.157 12.157 0 0 0 238.544 43.027 Q 238.623 42.477 238.623 42.041 Q 238.623 41.345 238.257 40.723 A 1.441 1.441 0 0 0 237.985 40.381 A 1.083 1.083 0 0 0 237.231 40.1 A 1.855 1.855 0 0 0 236.815 40.154 Q 236.214 40.295 235.291 40.796 Q 232.471 42.334 228.351 47.351 Q 224.231 52.368 221.484 58.264 A 37.218 37.218 0 0 0 219.921 62.14 Q 218.738 65.671 218.738 68.555 Z M 62.649 39.042 A 3.461 3.461 0 0 0 62.109 39.002 Q 60.393 39.002 58.208 41.414 A 21.665 21.665 0 0 0 56.946 42.957 Q 54.503 46.214 52.755 51.186 A 49.335 49.335 0 0 0 52.039 53.394 A 27.13 27.13 0 0 0 51.826 54.133 Q 51.544 55.17 51.489 55.774 A 57.748 57.748 0 0 1 54.492 54.236 A 57.748 57.748 0 0 0 57.495 52.698 Q 60.864 50.83 62.714 48.322 A 9.164 9.164 0 0 0 64.258 44.859 Q 64.544 43.593 64.562 42.128 A 16.076 16.076 0 0 0 64.563 41.931 Q 64.563 39.344 62.649 39.042 Z" vector-effect="non-scaling-stroke"/></g></svg>